<!--?xml version="1.0" standalone="no"?-->
              <svg id="sw-js-blob-svg" viewBox="0 0 100 100" xmlns="http://www.w3.org/2000/svg" version="1.1">
                    <defs> 
                        <linearGradient id="sw-gradient" x1="0" x2="1" y1="1" y2="0">
                            <stop id="stop1" stop-color="rgba(244.826, 155.639, 113.428, 1)" offset="0%"></stop>
                            <stop id="stop2" stop-color="rgba(181.045, 43.13, 206.12, 1)" offset="100%"></stop>
                        </linearGradient>
                    </defs>
                <path fill="url(#sw-gradient)" d="M25.8,-30.5C31,-26.3,31.3,-15.9,30.9,-7.1C30.5,1.8,29.5,9.1,26.7,16.7C23.9,24.2,19.1,31.9,11.9,36C4.6,40.2,-5.2,40.7,-12.6,37C-20,33.3,-24.9,25.3,-28.6,17.3C-32.2,9.4,-34.4,1.4,-33.4,-6.2C-32.4,-13.8,-28.2,-21.2,-22.1,-25.2C-16,-29.2,-8,-29.9,1.1,-31.2C10.3,-32.6,20.5,-34.6,25.8,-30.5Z" width="100%" height="100%" transform="translate(50 50)" stroke-width="0" style="transition: all 0.3s ease 0s;"></path>
              </svg>