<!--?xml version="1.0" standalone="no"?-->
              <svg id="sw-js-blob-svg" viewBox="0 0 100 100" xmlns="http://www.w3.org/2000/svg" version="1.1">
                    <defs> 
                        <linearGradient id="sw-gradient" x1="0" x2="1" y1="1" y2="0">
                            <stop id="stop1" stop-color="rgba(248, 117, 55, 1)" offset="0%"></stop>
                            <stop id="stop2" stop-color="rgba(105.368, 31, 251, 1)" offset="100%"></stop>
                        </linearGradient>
                    </defs>
                <path fill="url(#sw-gradient)" d="M23.5,-30.6C28.8,-23.6,30.3,-14.6,32.8,-5.1C35.3,4.5,38.9,14.5,35.6,20.9C32.3,27.3,22.2,30.1,13.1,31.5C4,32.9,-4,32.9,-10.5,30C-16.9,27.1,-21.9,21.3,-27.1,14.5C-32.3,7.8,-37.8,0.1,-37,-6.8C-36.1,-13.7,-29,-19.9,-21.7,-26.5C-14.5,-33.2,-7.3,-40.4,0.9,-41.5C9.1,-42.6,18.3,-37.6,23.5,-30.6Z" width="100%" height="100%" transform="translate(50 50)" stroke-width="0" style="transition: all 0.3s ease 0s;"></path>
              </svg>