<?xml version="1.0" encoding="utf-8"?>
<!-- Generator: Adobe Illustrator 24.3.0, SVG Export Plug-In . SVG Version: 6.00 Build 0)  -->
<svg version="1.1" id="Layer_1" xmlns="http://www.w3.org/2000/svg" xmlns:xlink="http://www.w3.org/1999/xlink" x="0px" y="0px"
	 viewBox="0 0 512 512" style="enable-background:new 0 0 512 512;" xml:space="preserve">
<g>
	<path d="M511.8,152.21l-0.72-5.48l-0.78-1.9l-1.8-4.23l-1.45-1.93l-2.62-3.32l-1.97-1.55l-3.08-2.43l-0.38-0.15l-0.2-0.15
		L268.95,3.33c-7.73-4.3-17.08-4.28-24.85-0.02L13.18,131.06l-0.28,0.25l-0.27,0.1l-2.4,1.88l-2.7,2.1l-2.03,2.62l-2.03,2.65
		l-1.52,3.55l-1.05,2.57l-0.72,5.38L0,153.43v0.03v0.02v204.8c0,9.3,5.03,17.88,13.18,22.38L243,508.33l0.02,0.02l0.05,0.02
		l0.53,0.27l3.45,1.38l2.47,1l6.48,0.85l6.5-0.85l2.48-1l3.45-1.38l0.53-0.27l0.05-0.02l0.02-0.02l229.83-127.68
		c8.1-4.5,13.15-13.07,13.15-22.38v-204.8v-0.02v-0.03L511.8,152.21z M255.27,252.61l-177-99l70.7-39.1l174.95,99.95L255.27,252.61z
		 M256.5,55.01l177.17,98.47l-57.45,31.93L201.38,85.48L256.5,55.01z M51.2,197.13l179.2,100.25v145.4L51.2,343.21V197.13z
		 M281.6,442.78l0.05-145.38l76.75-42.95v78.23l51.2-25.6v-81.28l51.2-28.65v146.05L281.6,442.78z"/>
</g>
</svg>
